<?xml version="1.0" encoding="utf-8"?>
<!-- Generator: Adobe Illustrator 27.5.0, SVG Export Plug-In . SVG Version: 6.00 Build 0)  -->
<svg version="1.1" xmlns="http://www.w3.org/2000/svg" xmlns:xlink="http://www.w3.org/1999/xlink" x="0px" y="0px"
	 viewBox="0 0 500 500" style="enable-background:new 0 0 500 500;" xml:space="preserve">
<g id="Background">
	<linearGradient id="SVGID_1_" gradientUnits="userSpaceOnUse" x1="0" y1="500" x2="500" y2="4.547474e-13">
		<stop  offset="0" style="stop-color:#000000"/>
		<stop  offset="0.2702" style="stop-color:#0B0820"/>
		<stop  offset="0.5449" style="stop-color:#140F39"/>
		<stop  offset="0.7961" style="stop-color:#191348"/>
		<stop  offset="1" style="stop-color:#1B144D"/>
	</linearGradient>
	<rect style="fill:url(#SVGID_1_);" width="500" height="500"/>
</g>
<g id="objects">
	<g>
		<g>
			
				<text transform="matrix(1 0 0 1 133.9268 342.6982)" style="fill:#FFFFFF; font-family:'Montserrat-SemiBold'; font-size:29.6471px; letter-spacing:5;">logoname</text>
			
				<text transform="matrix(1 0 0 1 179.5059 369.2979)" style="fill:#FFFFFF; font-family:'Montserrat-Regular'; font-size:10px; letter-spacing:2;">tagline goes here</text>
		</g>
		<g>
			
				<linearGradient id="SVGID_00000024003658231541076750000012873680009891515069_" gradientUnits="userSpaceOnUse" x1="149.75" y1="212.1846" x2="350.8857" y2="212.1846">
				<stop  offset="0.0765" style="stop-color:#0AC5FB"/>
				<stop  offset="0.1817" style="stop-color:#21A2F4"/>
				<stop  offset="0.3099" style="stop-color:#387DED"/>
				<stop  offset="0.4137" style="stop-color:#4766E9"/>
				<stop  offset="0.4796" style="stop-color:#4C5EE7"/>
				<stop  offset="0.7521" style="stop-color:#18AEF7"/>
				<stop  offset="0.8776" style="stop-color:#04CEFD"/>
			</linearGradient>
			<path style="fill:url(#SVGID_00000024003658231541076750000012873680009891515069_);" d="M168.42,246
				c15.023-30,46.094-50.631,81.908-50.631c35.835,0,66.92,20.631,81.934,50.631h18.624c-16.153-40-55.139-67.631-100.558-67.631
				C204.89,178.369,165.891,206,149.75,246H168.42z"/>
			<g>
				<g>
					<g>
						
							<linearGradient id="SVGID_00000076603201972485402110000017074588902586673053_" gradientUnits="userSpaceOnUse" x1="114.9961" y1="258.0079" x2="235.7422" y2="258.0079">
							<stop  offset="0" style="stop-color:#FFF100"/>
							<stop  offset="1" style="stop-color:#FF9400"/>
						</linearGradient>
						<path style="fill:url(#SVGID_00000076603201972485402110000017074588902586673053_);" d="M182.11,224.023
							c-27.219-8.407-52.504,3.707-67.105,13.404l0,0c-0.01,0.019-0.01,0.019-0.01,0.019l0,0l0,0
							c5.316,16.718,17.418,42.006,43.9,52.498c37.798,15.002,59.321-9.363,76.799-10l0.038,0.018l-0.013-0.01
							c0,0,0.021,0,0.021-0.016l-0.037-0.004C222.482,268.484,220.952,236.015,182.11,224.023z"/>
						<g>
							
								<linearGradient id="SVGID_00000076580138989628643200000011697931881136671126_" gradientUnits="userSpaceOnUse" x1="99.6215" y1="257.3311" x2="245.8833" y2="257.3311">
								<stop  offset="0" style="stop-color:#FF9400"/>
								<stop  offset="1" style="stop-color:#FFF100"/>
							</linearGradient>
							<path style="fill:url(#SVGID_00000076580138989628643200000011697931881136671126_);" d="M148.051,257.453
								c0.6-0.084,1.198-0.17,1.796-0.244C149.249,257.287,148.65,257.367,148.051,257.453z"/>
							
								<linearGradient id="SVGID_00000011743352756349872010000000829879370094875298_" gradientUnits="userSpaceOnUse" x1="99.6217" y1="265.8081" x2="245.883" y2="265.8081">
								<stop  offset="0" style="stop-color:#FF9400"/>
								<stop  offset="1" style="stop-color:#FFF100"/>
							</linearGradient>
							<path style="fill:url(#SVGID_00000011743352756349872010000000829879370094875298_);" d="M228.748,275.496
								c-17.451-14.186-46.68-22.414-78.572-18.328C181.422,253.297,211.541,262.065,228.748,275.496z"/>
							
								<linearGradient id="SVGID_00000076580051408599576650000003506408737795458206_" gradientUnits="userSpaceOnUse" x1="99.6225" y1="257.6732" x2="245.881" y2="257.6732">
								<stop  offset="0" style="stop-color:#FF9400"/>
								<stop  offset="1" style="stop-color:#FFF100"/>
							</linearGradient>
							<path style="fill:url(#SVGID_00000076580051408599576650000003506408737795458206_);" d="M144.811,257.955
								c-8.501,1.449-15.809,0.912-21.858-1.43c0.056,0.104,0.109,0.207,0.166,0.311
								C128.806,258.934,135.911,259.471,144.811,257.955z"/>
							
								<linearGradient id="SVGID_00000129181049667060320870000004480708181676261015_" gradientUnits="userSpaceOnUse" x1="99.6215" y1="258.0405" x2="245.8837" y2="258.0405">
								<stop  offset="0" style="stop-color:#FF9400"/>
								<stop  offset="1" style="stop-color:#FFF100"/>
							</linearGradient>
							<path style="fill:url(#SVGID_00000129181049667060320870000004480708181676261015_);" d="M154.791,241.549
								c-14.731,2.512-27.537,1.4-37.108-5.646c-0.927,0.58-1.822,1.158-2.677,1.725c-0.01,0.02-0.01,0.02-0.01,0.02
								c1.666,5.238,3.999,11.318,7.23,17.52c5.688,2.393,12.686,2.965,21.486,1.492c36.21-6.057,76.12,6.693,91.376,23.521
								c0.203-0.014,0.405-0.027,0.606-0.035l0.038,0.018l-0.013-0.01c0,0,0.021,0,0.021-0.016l-0.037-0.004
								c-6.003-5.198-9.605-14.729-15.373-24.71C203.927,244.049,180.856,237.105,154.791,241.549z"/>
							
								<linearGradient id="SVGID_00000158023939696392613920000000766989384663794097_" gradientUnits="userSpaceOnUse" x1="96.0996" y1="284.0323" x2="243.4726" y2="284.0323">
								<stop  offset="0" style="stop-color:#FFC904"/>
								<stop  offset="1" style="stop-color:#FF742C"/>
							</linearGradient>
							<path style="fill:url(#SVGID_00000158023939696392613920000000766989384663794097_);" d="M220.574,284.538
								c0.369-0.158,0.736-0.314,1.1-0.469c-0.63-0.197-1.275-0.377-1.934-0.543C220.032,283.862,220.314,284.2,220.574,284.538z"/>
							
								<linearGradient id="SVGID_00000119802065917209189800000010019552227883168941_" gradientUnits="userSpaceOnUse" x1="99.622" y1="270.1585" x2="245.8835" y2="270.1585">
								<stop  offset="0" style="stop-color:#FF9400"/>
								<stop  offset="1" style="stop-color:#FFF100"/>
							</linearGradient>
							<path style="fill:url(#SVGID_00000119802065917209189800000010019552227883168941_);" d="M228.748,275.496
								c-17.207-13.432-47.326-22.199-78.572-18.328c-0.109,0.014-0.219,0.025-0.329,0.041c-0.598,0.074-1.196,0.16-1.796,0.244
								c-1.077,0.156-2.156,0.316-3.239,0.502c-8.9,1.516-16.006,0.978-21.692-1.119c1.781,3.264,3.818,6.539,6.141,9.73
								c7.811,1.684,17.313,2.193,28.876,0.73c28.202-3.565,52.498,5.74,61.604,16.229c0.658,0.166,1.304,0.346,1.934,0.543
								c4.393-1.854,8.45-3.33,12.3-3.789C232.378,278.622,230.63,277.025,228.748,275.496z"/>
							
								<linearGradient id="SVGID_00000013912864211570900790000003290231617223576755_" gradientUnits="userSpaceOnUse" x1="96.1005" y1="270.1585" x2="243.4727" y2="270.1585">
								<stop  offset="0" style="stop-color:#FFC904"/>
								<stop  offset="1" style="stop-color:#FF742C"/>
							</linearGradient>
							<path style="fill:url(#SVGID_00000013912864211570900790000003290231617223576755_);" d="M228.748,275.496
								c-17.207-13.432-47.326-22.199-78.572-18.328c-0.109,0.014-0.219,0.025-0.329,0.041c-0.598,0.074-1.196,0.16-1.796,0.244
								c-1.077,0.156-2.156,0.316-3.239,0.502c-8.9,1.516-16.006,0.978-21.692-1.119c1.781,3.264,3.818,6.539,6.141,9.73
								c7.811,1.684,17.313,2.193,28.876,0.73c28.202-3.565,52.498,5.74,61.604,16.229c0.658,0.166,1.304,0.346,1.934,0.543
								c4.393-1.854,8.45-3.33,12.3-3.789C232.378,278.622,230.63,277.025,228.748,275.496z"/>
							
								<linearGradient id="SVGID_00000122694076276889251560000007775552294854913682_" gradientUnits="userSpaceOnUse" x1="99.6216" y1="267.6959" x2="245.8833" y2="267.6959">
								<stop  offset="0" style="stop-color:#FF9400"/>
								<stop  offset="1" style="stop-color:#FFF100"/>
							</linearGradient>
							<path style="fill:url(#SVGID_00000122694076276889251560000007775552294854913682_);" d="M143.713,256.658
								c-8.8,1.473-15.798,0.9-21.486-1.492c0.236,0.453,0.48,0.906,0.727,1.359c6.05,2.342,13.357,2.879,21.858,1.43
								c1.081-0.186,2.16-0.348,3.239-0.502c0.6-0.086,1.198-0.166,1.796-0.244c0.11-0.014,0.22-0.027,0.329-0.041
								c31.893-4.086,61.121,4.142,78.572,18.328c1.964,1.533,3.759,3.126,5.368,4.768c0.326-0.037,0.65-0.064,0.973-0.086
								C219.833,263.352,179.923,250.602,143.713,256.658z"/>
							
								<linearGradient id="SVGID_00000163778837138653458470000014035948362600073361_" gradientUnits="userSpaceOnUse" x1="104.4775" y1="267.6959" x2="240.4822" y2="267.6959">
								<stop  offset="0" style="stop-color:#FFE215"/>
								<stop  offset="1" style="stop-color:#FFEC68"/>
							</linearGradient>
							<path style="opacity:0.4;fill:url(#SVGID_00000163778837138653458470000014035948362600073361_);" d="M143.713,256.658
								c-8.8,1.473-15.798,0.9-21.486-1.492c0.236,0.453,0.48,0.906,0.727,1.359c6.05,2.342,13.357,2.879,21.858,1.43
								c1.081-0.186,2.16-0.348,3.239-0.502c0.6-0.086,1.198-0.166,1.796-0.244c0.11-0.014,0.22-0.027,0.329-0.041
								c31.893-4.086,61.121,4.142,78.572,18.328c1.964,1.533,3.759,3.126,5.368,4.768c0.326-0.037,0.65-0.064,0.973-0.086
								C219.833,263.352,179.923,250.602,143.713,256.658z"/>
							
								<linearGradient id="SVGID_00000170252076421774485640000000831851126795329936_" gradientUnits="userSpaceOnUse" x1="99.621" y1="257.7041" x2="245.8844" y2="257.7041">
								<stop  offset="0" style="stop-color:#FF9400"/>
								<stop  offset="1" style="stop-color:#FFF100"/>
							</linearGradient>
							<path style="fill:url(#SVGID_00000170252076421774485640000000831851126795329936_);" d="M144.811,257.955
								c1.083-0.186,2.162-0.346,3.239-0.502C146.972,257.607,145.893,257.77,144.811,257.955z"/>
							
								<linearGradient id="SVGID_00000029731443565939056230000017706159971179828150_" gradientUnits="userSpaceOnUse" x1="96.0995" y1="257.7041" x2="243.4741" y2="257.7041">
								<stop  offset="0" style="stop-color:#FFC904"/>
								<stop  offset="1" style="stop-color:#FF742C"/>
							</linearGradient>
							<path style="fill:url(#SVGID_00000029731443565939056230000017706159971179828150_);" d="M144.811,257.955
								c1.083-0.186,2.162-0.346,3.239-0.502C146.972,257.607,145.893,257.77,144.811,257.955z"/>
							
								<linearGradient id="SVGID_00000145025475921980127100000011227260145355578265_" gradientUnits="userSpaceOnUse" x1="104.477" y1="257.7041" x2="240.4832" y2="257.7041">
								<stop  offset="0" style="stop-color:#FFE215"/>
								<stop  offset="1" style="stop-color:#FFEC68"/>
							</linearGradient>
							<path style="opacity:0.4;fill:url(#SVGID_00000145025475921980127100000011227260145355578265_);" d="M144.811,257.955
								c1.083-0.186,2.162-0.346,3.239-0.502C146.972,257.607,145.893,257.77,144.811,257.955z"/>
							
								<linearGradient id="SVGID_00000054256855408141302280000006481628122739594380_" gradientUnits="userSpaceOnUse" x1="99.6218" y1="257.1885" x2="245.8828" y2="257.1885">
								<stop  offset="0" style="stop-color:#FF9400"/>
								<stop  offset="1" style="stop-color:#FFF100"/>
							</linearGradient>
							<path style="fill:url(#SVGID_00000054256855408141302280000006481628122739594380_);" d="M149.847,257.209
								c0.11-0.016,0.22-0.027,0.329-0.041C150.066,257.182,149.957,257.195,149.847,257.209z"/>
							
								<linearGradient id="SVGID_00000090293098475393859770000004975711146773793157_" gradientUnits="userSpaceOnUse" x1="96.1004" y1="257.1885" x2="243.4722" y2="257.1885">
								<stop  offset="0" style="stop-color:#FFC904"/>
								<stop  offset="1" style="stop-color:#FF742C"/>
							</linearGradient>
							<path style="fill:url(#SVGID_00000090293098475393859770000004975711146773793157_);" d="M149.847,257.209
								c0.11-0.016,0.22-0.027,0.329-0.041C150.066,257.182,149.957,257.195,149.847,257.209z"/>
							
								<linearGradient id="SVGID_00000028304339343315859280000016171449022776645818_" gradientUnits="userSpaceOnUse" x1="104.4778" y1="257.1885" x2="240.4815" y2="257.1885">
								<stop  offset="0" style="stop-color:#FFE215"/>
								<stop  offset="1" style="stop-color:#FFEC68"/>
							</linearGradient>
							<path style="opacity:0.4;fill:url(#SVGID_00000028304339343315859280000016171449022776645818_);" d="M149.847,257.209
								c0.11-0.016,0.22-0.027,0.329-0.041C150.066,257.182,149.957,257.195,149.847,257.209z"/>
							
								<linearGradient id="SVGID_00000134945362028691258790000003588360207288831664_" gradientUnits="userSpaceOnUse" x1="99.621" y1="277.8882" x2="245.8833" y2="277.8882">
								<stop  offset="0" style="stop-color:#FF9400"/>
								<stop  offset="1" style="stop-color:#FFF100"/>
							</linearGradient>
							<path style="fill:url(#SVGID_00000134945362028691258790000003588360207288831664_);" d="M228.748,275.496
								c1.882,1.529,3.63,3.126,5.226,4.784c0.048-0.006,0.095-0.01,0.143-0.016C232.507,278.622,230.712,277.029,228.748,275.496z"
								/>
							
								<linearGradient id="SVGID_00000180340244948563052020000007178720479764781983_" gradientUnits="userSpaceOnUse" x1="96.0995" y1="277.8882" x2="243.4729" y2="277.8882">
								<stop  offset="0" style="stop-color:#FFC904"/>
								<stop  offset="1" style="stop-color:#FF742C"/>
							</linearGradient>
							<path style="fill:url(#SVGID_00000180340244948563052020000007178720479764781983_);" d="M228.748,275.496
								c1.882,1.529,3.63,3.126,5.226,4.784c0.048-0.006,0.095-0.01,0.143-0.016C232.507,278.622,230.712,277.029,228.748,275.496z"
								/>
							
								<linearGradient id="SVGID_00000001641698531099574890000004842341093261892505_" gradientUnits="userSpaceOnUse" x1="104.4771" y1="277.8882" x2="240.4823" y2="277.8882">
								<stop  offset="0" style="stop-color:#FFE215"/>
								<stop  offset="1" style="stop-color:#FFEC68"/>
							</linearGradient>
							<path style="opacity:0.4;fill:url(#SVGID_00000001641698531099574890000004842341093261892505_);" d="M228.748,275.496
								c1.882,1.529,3.63,3.126,5.226,4.784c0.048-0.006,0.095-0.01,0.143-0.016C232.507,278.622,230.712,277.029,228.748,275.496z"
								/>
							
								<linearGradient id="SVGID_00000040552325840084485300000012268357831535858312_" gradientUnits="userSpaceOnUse" x1="96.1003" y1="275.7055" x2="243.4713" y2="275.7055">
								<stop  offset="0" style="stop-color:#FFC904"/>
								<stop  offset="1" style="stop-color:#FF742C"/>
							</linearGradient>
							<path style="fill:url(#SVGID_00000040552325840084485300000012268357831535858312_);" d="M133.589,271.998
								c2.27,2.602,4.764,5.092,7.498,7.415c2.24-0.059,4.583-0.246,7.032-0.576C143.016,276.996,138.139,274.719,133.589,271.998z"
								/>
							<path style="opacity:0.4;fill:#FF9400;" d="M133.589,271.998c2.27,2.602,4.764,5.092,7.498,7.415
								c2.24-0.059,4.583-0.246,7.032-0.576C143.016,276.996,138.139,274.719,133.589,271.998z"/>
							
								<linearGradient id="SVGID_00000153704535952728333870000006990879206418147007_" gradientUnits="userSpaceOnUse" x1="96.1032" y1="286.7928" x2="243.4722" y2="286.7928">
								<stop  offset="0" style="stop-color:#FFC904"/>
								<stop  offset="1" style="stop-color:#FF742C"/>
							</linearGradient>
							<path style="fill:url(#SVGID_00000153704535952728333870000006990879206418147007_);" d="M200.499,283.138
								c1.948,2.514,3.124,5.322,3.707,8.113c6.001-2.043,11.399-4.578,16.368-6.713c-0.26-0.338-0.542-0.676-0.834-1.012
								C214.241,282.146,207.806,281.897,200.499,283.138z"/>
							<path style="opacity:0.4;fill:#FF9400;" d="M200.499,283.138c1.948,2.514,3.124,5.322,3.707,8.113
								c6.001-2.043,11.399-4.578,16.368-6.713c-0.26-0.338-0.542-0.676-0.834-1.012
								C214.241,282.146,207.806,281.897,200.499,283.138z"/>
							
								<linearGradient id="SVGID_00000122702338859503435560000017856049526960556716_" gradientUnits="userSpaceOnUse" x1="99.6223" y1="275.0242" x2="245.883" y2="275.0242">
								<stop  offset="0" style="stop-color:#FF9400"/>
								<stop  offset="1" style="stop-color:#FFF100"/>
							</linearGradient>
							<path style="fill:url(#SVGID_00000122702338859503435560000017856049526960556716_);" d="M157.414,277.018
								c24.547-6.244,37.268-1.387,43.085,6.12c7.307-1.24,13.742-0.992,19.241,0.389c-9.106-10.489-33.402-19.794-61.604-16.229
								c-11.563,1.463-21.064,0.953-28.876-0.73c1.344,1.848,2.786,3.664,4.329,5.432c4.55,2.721,9.427,4.998,14.53,6.839
								C151.063,278.439,154.153,277.849,157.414,277.018z"/>
							
								<linearGradient id="SVGID_00000007411251275063830350000014334083139315798178_" gradientUnits="userSpaceOnUse" x1="96.1008" y1="275.0242" x2="243.4726" y2="275.0242">
								<stop  offset="0" style="stop-color:#FFC904"/>
								<stop  offset="1" style="stop-color:#FF742C"/>
							</linearGradient>
							<path style="fill:url(#SVGID_00000007411251275063830350000014334083139315798178_);" d="M157.414,277.018
								c24.547-6.244,37.268-1.387,43.085,6.12c7.307-1.24,13.742-0.992,19.241,0.389c-9.106-10.489-33.402-19.794-61.604-16.229
								c-11.563,1.463-21.064,0.953-28.876-0.73c1.344,1.848,2.786,3.664,4.329,5.432c4.55,2.721,9.427,4.998,14.53,6.839
								C151.063,278.439,154.153,277.849,157.414,277.018z"/>
							<path style="opacity:0.4;fill:#FF9400;" d="M157.414,277.018c24.547-6.244,37.268-1.387,43.085,6.12
								c7.307-1.24,13.742-0.992,19.241,0.389c-9.106-10.489-33.402-19.794-61.604-16.229c-11.563,1.463-21.064,0.953-28.876-0.73
								c1.344,1.848,2.786,3.664,4.329,5.432c4.55,2.721,9.427,4.998,14.53,6.839C151.063,278.439,154.153,277.849,157.414,277.018z
								"/>
							
								<linearGradient id="SVGID_00000073690913706593074150000005416876660646183066_" gradientUnits="userSpaceOnUse" x1="96.0997" y1="286.9267" x2="243.4736" y2="286.9267">
								<stop  offset="0" style="stop-color:#FFC904"/>
								<stop  offset="1" style="stop-color:#FF742C"/>
							</linearGradient>
							<path style="fill:url(#SVGID_00000073690913706593074150000005416876660646183066_);" d="M200.438,283.146
								c-17.433,2.971-36.017,1.564-52.319-4.309c-2.449,0.33-4.792,0.518-7.032,0.576c5.063,4.297,10.95,8.014,17.81,10.73
								c18.537,7.357,33.158,5.246,45.31,1.107c-0.583-2.791-1.759-5.6-3.707-8.113C200.478,283.14,200.459,283.142,200.438,283.146
								z"/>
							<path style="opacity:0.4;fill:#FF9400;" d="M200.438,283.146c-17.433,2.971-36.017,1.564-52.319-4.309
								c-2.449,0.33-4.792,0.518-7.032,0.576c5.063,4.297,10.95,8.014,17.81,10.73c18.537,7.357,33.158,5.246,45.31,1.107
								c-0.583-2.791-1.759-5.6-3.707-8.113C200.478,283.14,200.459,283.142,200.438,283.146z"/>
							
								<linearGradient id="SVGID_00000155825815406197544170000014542747562235523254_" gradientUnits="userSpaceOnUse" x1="92.1958" y1="286.9267" x2="204.6642" y2="286.9267">
								<stop  offset="0" style="stop-color:#FFC904"/>
								<stop  offset="1" style="stop-color:#FF742C"/>
							</linearGradient>
							<path style="fill:url(#SVGID_00000155825815406197544170000014542747562235523254_);" d="M200.438,283.146
								c-17.433,2.971-36.017,1.564-52.319-4.309c-2.449,0.33-4.792,0.518-7.032,0.576c5.063,4.297,10.95,8.014,17.81,10.73
								c18.537,7.357,33.158,5.246,45.31,1.107c-0.583-2.791-1.759-5.6-3.707-8.113C200.478,283.14,200.459,283.142,200.438,283.146
								z"/>
							
								<linearGradient id="SVGID_00000176747740373996816560000008294547381355132049_" gradientUnits="userSpaceOnUse" x1="99.6211" y1="279.4054" x2="245.8841" y2="279.4054">
								<stop  offset="0" style="stop-color:#FF9400"/>
								<stop  offset="1" style="stop-color:#FFF100"/>
							</linearGradient>
							<path style="fill:url(#SVGID_00000176747740373996816560000008294547381355132049_);" d="M157.414,277.018
								c-3.261,0.831-6.351,1.421-9.295,1.819c16.303,5.873,34.887,7.279,52.319,4.309c0.021-0.004,0.04-0.006,0.061-0.008
								C194.682,275.631,181.961,270.773,157.414,277.018z"/>
							
								<linearGradient id="SVGID_00000003813986589908099900000008314321905849265541_" gradientUnits="userSpaceOnUse" x1="96.0996" y1="279.4054" x2="243.4736" y2="279.4054">
								<stop  offset="0" style="stop-color:#FFC904"/>
								<stop  offset="1" style="stop-color:#FF742C"/>
							</linearGradient>
							<path style="fill:url(#SVGID_00000003813986589908099900000008314321905849265541_);" d="M157.414,277.018
								c-3.261,0.831-6.351,1.421-9.295,1.819c16.303,5.873,34.887,7.279,52.319,4.309c0.021-0.004,0.04-0.006,0.061-0.008
								C194.682,275.631,181.961,270.773,157.414,277.018z"/>
							<path style="opacity:0.4;fill:#FF9400;" d="M157.414,277.018c-3.261,0.831-6.351,1.421-9.295,1.819
								c16.303,5.873,34.887,7.279,52.319,4.309c0.021-0.004,0.04-0.006,0.061-0.008
								C194.682,275.631,181.961,270.773,157.414,277.018z"/>
							
								<linearGradient id="SVGID_00000039819926268456784720000007338806138372630963_" gradientUnits="userSpaceOnUse" x1="92.1957" y1="279.4054" x2="204.6642" y2="279.4054">
								<stop  offset="0" style="stop-color:#FFC904"/>
								<stop  offset="1" style="stop-color:#FF742C"/>
							</linearGradient>
							<path style="fill:url(#SVGID_00000039819926268456784720000007338806138372630963_);" d="M157.414,277.018
								c-3.261,0.831-6.351,1.421-9.295,1.819c16.303,5.873,34.887,7.279,52.319,4.309c0.021-0.004,0.04-0.006,0.061-0.008
								C194.682,275.631,181.961,270.773,157.414,277.018z"/>
						</g>
					</g>
					<g>
						
							<linearGradient id="SVGID_00000155119850071336976310000012476711488332615051_" gradientUnits="userSpaceOnUse" x1="346.2666" y1="258.0085" x2="467.0117" y2="258.0085" gradientTransform="matrix(-1 0 0 1 731.1406 0)">
							<stop  offset="0" style="stop-color:#FFF100"/>
							<stop  offset="1" style="stop-color:#FF9400"/>
						</linearGradient>
						<path style="fill:url(#SVGID_00000155119850071336976310000012476711488332615051_);" d="M264.166,279.933l-0.037,0.004
							c0,0.016,0.022,0.016,0.022,0.016l-0.013,0.01l0.038-0.018c17.478,0.637,39.001,25.002,76.798,10
							c26.482-10.492,38.585-35.78,43.9-52.497l0,0l0,0c0,0,0,0-0.009-0.019l0,0c-14.601-9.697-39.886-21.811-67.104-13.404
							C278.919,236.016,277.389,268.486,264.166,279.933z"/>
						<g>
							
								<linearGradient id="SVGID_00000070808600096378679650000016023856017331952284_" gradientUnits="userSpaceOnUse" x1="330.919" y1="257.333" x2="477.0994" y2="257.333" gradientTransform="matrix(-1 0 0 1 731.1406 0)">
								<stop  offset="0" style="stop-color:#FF9400"/>
								<stop  offset="1" style="stop-color:#FFF100"/>
							</linearGradient>
							<path style="fill:url(#SVGID_00000070808600096378679650000016023856017331952284_);" d="M351.819,257.455
								c-0.599-0.084-1.197-0.17-1.795-0.244C350.622,257.289,351.22,257.369,351.819,257.455z"/>
							
								<linearGradient id="SVGID_00000176024776995428966820000010758538710415392402_" gradientUnits="userSpaceOnUse" x1="330.8922" y1="265.81" x2="477.1535" y2="265.81" gradientTransform="matrix(-1 0 0 1 731.1406 0)">
								<stop  offset="0" style="stop-color:#FF9400"/>
								<stop  offset="1" style="stop-color:#FFF100"/>
							</linearGradient>
							<path style="fill:url(#SVGID_00000176024776995428966820000010758538710415392402_);" d="M271.122,275.498
								c17.452-14.185,46.681-22.414,78.572-18.328C318.448,253.299,288.329,262.066,271.122,275.498z"/>
							
								<linearGradient id="SVGID_00000071521259487869509310000010037432716701285004_" gradientUnits="userSpaceOnUse" x1="330.892" y1="257.6751" x2="477.1506" y2="257.6751" gradientTransform="matrix(-1 0 0 1 731.1406 0)">
								<stop  offset="0" style="stop-color:#FF9400"/>
								<stop  offset="1" style="stop-color:#FFF100"/>
							</linearGradient>
							<path style="fill:url(#SVGID_00000071521259487869509310000010037432716701285004_);" d="M355.06,257.957
								c8.501,1.449,15.809,0.912,21.858-1.43c-0.056,0.104-0.109,0.207-0.166,0.311C371.065,258.935,363.96,259.473,355.06,257.957
								z"/>
							
								<linearGradient id="SVGID_00000180347355640072492280000003391522621612688287_" gradientUnits="userSpaceOnUse" x1="330.8921" y1="258.0415" x2="477.1531" y2="258.0415" gradientTransform="matrix(-1 0 0 1 731.1406 0)">
								<stop  offset="0" style="stop-color:#FF9400"/>
								<stop  offset="1" style="stop-color:#FFF100"/>
							</linearGradient>
							<path style="fill:url(#SVGID_00000180347355640072492280000003391522621612688287_);" d="M345.079,241.551
								c14.731,2.512,27.538,1.398,37.109-5.646c0.927,0.58,1.822,1.156,2.677,1.725c0.009,0.018,0.009,0.018,0.009,0.018
								c-1.665,5.238-3.998,11.318-7.23,17.521c-5.688,2.392-12.686,2.965-21.485,1.492c-36.21-6.058-76.12,6.693-91.376,23.519
								c-0.203-0.014-0.405-0.027-0.606-0.035l-0.038,0.018l0.013-0.01c0,0-0.022,0-0.022-0.016l0.037-0.004
								c6.003-5.196,9.604-14.728,15.373-24.708C295.944,244.049,319.015,237.107,345.079,241.551z"/>
							
								<linearGradient id="SVGID_00000055681825281904563230000008113752362266952854_" gradientUnits="userSpaceOnUse" x1="327.3701" y1="284.0323" x2="474.7431" y2="284.0323" gradientTransform="matrix(-1 0 0 1 731.1406 0)">
								<stop  offset="0" style="stop-color:#FFC904"/>
								<stop  offset="1" style="stop-color:#FF742C"/>
							</linearGradient>
							<path style="fill:url(#SVGID_00000055681825281904563230000008113752362266952854_);" d="M279.296,284.538
								c-0.369-0.158-0.735-0.314-1.1-0.469c0.631-0.197,1.276-0.377,1.934-0.543C279.839,283.862,279.557,284.2,279.296,284.538z"
								/>
							
								<linearGradient id="SVGID_00000115480121044960532360000009621420956339028159_" gradientUnits="userSpaceOnUse" x1="330.8915" y1="270.1595" x2="477.153" y2="270.1595" gradientTransform="matrix(-1 0 0 1 731.1406 0)">
								<stop  offset="0" style="stop-color:#FF9400"/>
								<stop  offset="1" style="stop-color:#FFF100"/>
							</linearGradient>
							<path style="fill:url(#SVGID_00000115480121044960532360000009621420956339028159_);" d="M271.122,275.498
								c17.207-13.432,47.326-22.199,78.572-18.328c0.11,0.014,0.22,0.025,0.33,0.041c0.598,0.074,1.196,0.16,1.795,0.244
								c1.078,0.156,2.156,0.316,3.24,0.502c8.9,1.516,16.006,0.978,21.692-1.119c-1.781,3.264-3.819,6.539-6.141,9.73
								c-7.812,1.684-17.313,2.193-28.876,0.73c-28.202-3.564-52.498,5.74-61.605,16.228c-0.657,0.166-1.303,0.346-1.934,0.543
								c-4.392-1.854-8.449-3.33-12.299-3.789C267.493,278.622,269.241,277.027,271.122,275.498z"/>
							
								<linearGradient id="SVGID_00000156565359497184697400000017241049359707807896_" gradientUnits="userSpaceOnUse" x1="327.37" y1="270.1595" x2="474.7422" y2="270.1595" gradientTransform="matrix(-1 0 0 1 731.1406 0)">
								<stop  offset="0" style="stop-color:#FFC904"/>
								<stop  offset="1" style="stop-color:#FF742C"/>
							</linearGradient>
							<path style="fill:url(#SVGID_00000156565359497184697400000017241049359707807896_);" d="M271.122,275.498
								c17.207-13.432,47.326-22.199,78.572-18.328c0.11,0.014,0.22,0.025,0.33,0.041c0.598,0.074,1.196,0.16,1.795,0.244
								c1.078,0.156,2.156,0.316,3.24,0.502c8.9,1.516,16.006,0.978,21.692-1.119c-1.781,3.264-3.819,6.539-6.141,9.73
								c-7.812,1.684-17.313,2.193-28.876,0.73c-28.202-3.564-52.498,5.74-61.605,16.228c-0.657,0.166-1.303,0.346-1.934,0.543
								c-4.392-1.854-8.449-3.33-12.299-3.789C267.493,278.622,269.241,277.027,271.122,275.498z"/>
							
								<linearGradient id="SVGID_00000038388573666792525760000013313725878744998294_" gradientUnits="userSpaceOnUse" x1="330.8922" y1="267.6967" x2="477.1527" y2="267.6967" gradientTransform="matrix(-1 0 0 1 731.1406 0)">
								<stop  offset="0" style="stop-color:#FF9400"/>
								<stop  offset="1" style="stop-color:#FFF100"/>
							</linearGradient>
							<path style="fill:url(#SVGID_00000038388573666792525760000013313725878744998294_);" d="M356.158,256.66
								c8.8,1.473,15.798,0.9,21.485-1.492c-0.235,0.453-0.48,0.906-0.726,1.359c-6.05,2.342-13.358,2.879-21.858,1.43
								c-1.081-0.185-2.16-0.348-3.24-0.502c-0.6-0.086-1.197-0.166-1.795-0.244c-0.11-0.014-0.22-0.027-0.33-0.041
								c-31.892-4.086-61.12,4.143-78.572,18.328c-1.963,1.533-3.758,3.124-5.367,4.767c-0.326-0.037-0.65-0.064-0.973-0.086
								C280.038,263.353,319.948,250.602,356.158,256.66z"/>
							
								<linearGradient id="SVGID_00000004524756656948913830000011555849414116800945_" gradientUnits="userSpaceOnUse" x1="335.7481" y1="267.6967" x2="471.7517" y2="267.6967" gradientTransform="matrix(-1 0 0 1 731.1406 0)">
								<stop  offset="0" style="stop-color:#FFE215"/>
								<stop  offset="1" style="stop-color:#FFEC68"/>
							</linearGradient>
							<path style="opacity:0.4;fill:url(#SVGID_00000004524756656948913830000011555849414116800945_);" d="M356.158,256.66
								c8.8,1.473,15.798,0.9,21.485-1.492c-0.235,0.453-0.48,0.906-0.726,1.359c-6.05,2.342-13.358,2.879-21.858,1.43
								c-1.081-0.185-2.16-0.348-3.24-0.502c-0.6-0.086-1.197-0.166-1.795-0.244c-0.11-0.014-0.22-0.027-0.33-0.041
								c-31.892-4.086-61.12,4.143-78.572,18.328c-1.963,1.533-3.758,3.124-5.367,4.767c-0.326-0.037-0.65-0.064-0.973-0.086
								C280.038,263.353,319.948,250.602,356.158,256.66z"/>
							
								<linearGradient id="SVGID_00000134963427875240241810000015263916790806176659_" gradientUnits="userSpaceOnUse" x1="330.8766" y1="257.7061" x2="477.1852" y2="257.7061" gradientTransform="matrix(-1 0 0 1 731.1406 0)">
								<stop  offset="0" style="stop-color:#FF9400"/>
								<stop  offset="1" style="stop-color:#FFF100"/>
							</linearGradient>
							<path style="fill:url(#SVGID_00000134963427875240241810000015263916790806176659_);" d="M355.06,257.957
								c-1.084-0.185-2.162-0.346-3.24-0.502C352.899,257.609,353.978,257.772,355.06,257.957z"/>
							
								<linearGradient id="SVGID_00000004511949026530009120000014028463220157294469_" gradientUnits="userSpaceOnUse" x1="327.354" y1="257.7061" x2="474.7741" y2="257.7061" gradientTransform="matrix(-1 0 0 1 731.1406 0)">
								<stop  offset="0" style="stop-color:#FFC904"/>
								<stop  offset="1" style="stop-color:#FF742C"/>
							</linearGradient>
							<path style="fill:url(#SVGID_00000004511949026530009120000014028463220157294469_);" d="M355.06,257.957
								c-1.084-0.185-2.162-0.346-3.24-0.502C352.899,257.609,353.978,257.772,355.06,257.957z"/>
							
								<linearGradient id="SVGID_00000058576706795687387510000006425924815617906053_" gradientUnits="userSpaceOnUse" x1="335.7341" y1="257.7061" x2="471.7823" y2="257.7061" gradientTransform="matrix(-1 0 0 1 731.1406 0)">
								<stop  offset="0" style="stop-color:#FFE215"/>
								<stop  offset="1" style="stop-color:#FFEC68"/>
							</linearGradient>
							<path style="opacity:0.4;fill:url(#SVGID_00000058576706795687387510000006425924815617906053_);" d="M355.06,257.957
								c-1.084-0.185-2.162-0.346-3.24-0.502C352.899,257.609,353.978,257.772,355.06,257.957z"/>
							
								<linearGradient id="SVGID_00000051348370738576567130000014796648444709364655_" gradientUnits="userSpaceOnUse" x1="330.7387" y1="257.1904" x2="477.4442" y2="257.1904" gradientTransform="matrix(-1 0 0 1 731.1406 0)">
								<stop  offset="0" style="stop-color:#FF9400"/>
								<stop  offset="1" style="stop-color:#FFF100"/>
							</linearGradient>
							<path style="fill:url(#SVGID_00000051348370738576567130000014796648444709364655_);" d="M350.024,257.211
								c-0.11-0.016-0.22-0.027-0.33-0.041C349.805,257.184,349.914,257.197,350.024,257.211z"/>
							
								<linearGradient id="SVGID_00000117678984960376290530000015066573043302355087_" gradientUnits="userSpaceOnUse" x1="327.2066" y1="257.1904" x2="475.0262" y2="257.1904" gradientTransform="matrix(-1 0 0 1 731.1406 0)">
								<stop  offset="0" style="stop-color:#FFC904"/>
								<stop  offset="1" style="stop-color:#FF742C"/>
							</linearGradient>
							<path style="fill:url(#SVGID_00000117678984960376290530000015066573043302355087_);" d="M350.024,257.211
								c-0.11-0.016-0.22-0.027-0.33-0.041C349.805,257.184,349.914,257.197,350.024,257.211z"/>
							
								<linearGradient id="SVGID_00000181795800689235480720000004728094152711566782_" gradientUnits="userSpaceOnUse" x1="335.6094" y1="257.1904" x2="472.0264" y2="257.1904" gradientTransform="matrix(-1 0 0 1 731.1406 0)">
								<stop  offset="0" style="stop-color:#FFE215"/>
								<stop  offset="1" style="stop-color:#FFEC68"/>
							</linearGradient>
							<path style="opacity:0.4;fill:url(#SVGID_00000181795800689235480720000004728094152711566782_);" d="M350.024,257.211
								c-0.11-0.016-0.22-0.027-0.33-0.041C349.805,257.184,349.914,257.197,350.024,257.211z"/>
							
								<linearGradient id="SVGID_00000072278462131426092090000004487870347301223591_" gradientUnits="userSpaceOnUse" x1="330.9153" y1="277.8892" x2="477.1506" y2="277.8892" gradientTransform="matrix(-1 0 0 1 731.1406 0)">
								<stop  offset="0" style="stop-color:#FF9400"/>
								<stop  offset="1" style="stop-color:#FFF100"/>
							</linearGradient>
							<path style="fill:url(#SVGID_00000072278462131426092090000004487870347301223591_);" d="M271.122,275.498
								c-1.881,1.529-3.629,3.124-5.225,4.782c-0.048-0.006-0.096-0.01-0.143-0.016
								C267.364,278.622,269.159,277.031,271.122,275.498z"/>
							
								<linearGradient id="SVGID_00000054963454320006237340000014871881053588227232_" gradientUnits="userSpaceOnUse" x1="327.3945" y1="277.8892" x2="474.7408" y2="277.8892" gradientTransform="matrix(-1 0 0 1 731.1406 0)">
								<stop  offset="0" style="stop-color:#FFC904"/>
								<stop  offset="1" style="stop-color:#FF742C"/>
							</linearGradient>
							<path style="fill:url(#SVGID_00000054963454320006237340000014871881053588227232_);" d="M271.122,275.498
								c-1.881,1.529-3.629,3.124-5.225,4.782c-0.048-0.006-0.096-0.01-0.143-0.016
								C267.364,278.622,269.159,277.031,271.122,275.498z"/>
							
								<linearGradient id="SVGID_00000085242192830136804210000009486981556440616359_" gradientUnits="userSpaceOnUse" x1="335.7705" y1="277.8892" x2="471.7507" y2="277.8892" gradientTransform="matrix(-1 0 0 1 731.1406 0)">
								<stop  offset="0" style="stop-color:#FFE215"/>
								<stop  offset="1" style="stop-color:#FFEC68"/>
							</linearGradient>
							<path style="opacity:0.4;fill:url(#SVGID_00000085242192830136804210000009486981556440616359_);" d="M271.122,275.498
								c-1.881,1.529-3.629,3.124-5.225,4.782c-0.048-0.006-0.096-0.01-0.143-0.016
								C267.364,278.622,269.159,277.031,271.122,275.498z"/>
							
								<linearGradient id="SVGID_00000177484718332401525240000011516574164459412637_" gradientUnits="userSpaceOnUse" x1="327.3672" y1="275.7065" x2="474.7483" y2="275.7065" gradientTransform="matrix(-1 0 0 1 731.1406 0)">
								<stop  offset="0" style="stop-color:#FFC904"/>
								<stop  offset="1" style="stop-color:#FF742C"/>
							</linearGradient>
							<path style="fill:url(#SVGID_00000177484718332401525240000011516574164459412637_);" d="M366.282,272
								c-2.27,2.602-4.764,5.092-7.498,7.413c-2.24-0.059-4.584-0.246-7.033-0.576C356.854,276.998,361.731,274.721,366.282,272z"/>
							<path style="opacity:0.4;fill:#FF9400;" d="M366.282,272c-2.27,2.602-4.764,5.092-7.498,7.413
								c-2.24-0.059-4.584-0.246-7.033-0.576C356.854,276.998,361.731,274.721,366.282,272z"/>
							
								<linearGradient id="SVGID_00000167378828549987650660000004410034631197841565_" gradientUnits="userSpaceOnUse" x1="327.3675" y1="286.7928" x2="474.7438" y2="286.7928" gradientTransform="matrix(-1 0 0 1 731.1406 0)">
								<stop  offset="0" style="stop-color:#FFC904"/>
								<stop  offset="1" style="stop-color:#FF742C"/>
							</linearGradient>
							<path style="fill:url(#SVGID_00000167378828549987650660000004410034631197841565_);" d="M299.372,283.138
								c-1.949,2.514-3.125,5.322-3.707,8.113c-6.001-2.043-11.4-4.578-16.369-6.713c0.261-0.338,0.543-0.676,0.834-1.012
								C285.63,282.146,292.065,281.897,299.372,283.138z"/>
							<path style="opacity:0.4;fill:#FF9400;" d="M299.372,283.138c-1.949,2.514-3.125,5.322-3.707,8.113
								c-6.001-2.043-11.4-4.578-16.369-6.713c0.261-0.338,0.543-0.676,0.834-1.012C285.63,282.146,292.065,281.897,299.372,283.138
								z"/>
							
								<linearGradient id="SVGID_00000010301966332295809770000012858681728975173537_" gradientUnits="userSpaceOnUse" x1="330.8915" y1="275.0252" x2="477.1538" y2="275.0252" gradientTransform="matrix(-1 0 0 1 731.1406 0)">
								<stop  offset="0" style="stop-color:#FF9400"/>
								<stop  offset="1" style="stop-color:#FFF100"/>
							</linearGradient>
							<path style="fill:url(#SVGID_00000010301966332295809770000012858681728975173537_);" d="M342.456,277.02
								c-24.546-6.244-37.268-1.387-43.084,6.118c-7.307-1.24-13.742-0.992-19.242,0.389c9.107-10.487,33.403-19.792,61.605-16.228
								c11.563,1.463,21.064,0.953,28.876-0.73c-1.345,1.848-2.786,3.664-4.329,5.432c-4.551,2.721-9.428,4.998-14.531,6.837
								C348.808,278.439,345.718,277.849,342.456,277.02z"/>
							
								<linearGradient id="SVGID_00000009584522597252364600000009606807384066182300_" gradientUnits="userSpaceOnUse" x1="327.37" y1="275.0252" x2="474.7433" y2="275.0252" gradientTransform="matrix(-1 0 0 1 731.1406 0)">
								<stop  offset="0" style="stop-color:#FFC904"/>
								<stop  offset="1" style="stop-color:#FF742C"/>
							</linearGradient>
							<path style="fill:url(#SVGID_00000009584522597252364600000009606807384066182300_);" d="M342.456,277.02
								c-24.546-6.244-37.268-1.387-43.084,6.118c-7.307-1.24-13.742-0.992-19.242,0.389c9.107-10.487,33.403-19.792,61.605-16.228
								c11.563,1.463,21.064,0.953,28.876-0.73c-1.345,1.848-2.786,3.664-4.329,5.432c-4.551,2.721-9.428,4.998-14.531,6.837
								C348.808,278.439,345.718,277.849,342.456,277.02z"/>
							<path style="opacity:0.4;fill:#FF9400;" d="M342.456,277.02c-24.546-6.244-37.268-1.387-43.084,6.118
								c-7.307-1.24-13.742-0.992-19.242,0.389c9.107-10.487,33.403-19.792,61.605-16.228c11.563,1.463,21.064,0.953,28.876-0.73
								c-1.345,1.848-2.786,3.664-4.329,5.432c-4.551,2.721-9.428,4.998-14.531,6.837
								C348.808,278.439,345.718,277.849,342.456,277.02z"/>
							
								<linearGradient id="SVGID_00000068637930525195001590000013985930107730784174_" gradientUnits="userSpaceOnUse" x1="327.3692" y1="286.9267" x2="474.743" y2="286.9267" gradientTransform="matrix(-1 0 0 1 731.1406 0)">
								<stop  offset="0" style="stop-color:#FFC904"/>
								<stop  offset="1" style="stop-color:#FF742C"/>
							</linearGradient>
							<path style="fill:url(#SVGID_00000068637930525195001590000013985930107730784174_);" d="M299.433,283.146
								c17.433,2.971,36.017,1.564,52.318-4.309c2.449,0.33,4.793,0.518,7.033,0.576c-5.063,4.297-10.95,8.014-17.811,10.73
								c-18.537,7.357-33.158,5.246-45.309,1.107c0.582-2.791,1.758-5.6,3.707-8.113
								C299.393,283.14,299.412,283.142,299.433,283.146z"/>
							<path style="opacity:0.4;fill:#FF9400;" d="M299.433,283.146c17.433,2.971,36.017,1.564,52.318-4.309
								c2.449,0.33,4.793,0.518,7.033,0.576c-5.063,4.297-10.95,8.014-17.811,10.73c-18.537,7.357-33.158,5.246-45.309,1.107
								c0.582-2.791,1.758-5.6,3.707-8.113C299.393,283.14,299.412,283.142,299.433,283.146z"/>
							
								<linearGradient id="SVGID_00000060001780842661508190000013526645185087373729_" gradientUnits="userSpaceOnUse" x1="323.4654" y1="286.9267" x2="435.9337" y2="286.9267" gradientTransform="matrix(-1 0 0 1 731.1406 0)">
								<stop  offset="0" style="stop-color:#FFC904"/>
								<stop  offset="1" style="stop-color:#FF742C"/>
							</linearGradient>
							<path style="fill:url(#SVGID_00000060001780842661508190000013526645185087373729_);" d="M299.433,283.146
								c17.433,2.971,36.017,1.564,52.318-4.309c2.449,0.33,4.793,0.518,7.033,0.576c-5.063,4.297-10.95,8.014-17.811,10.73
								c-18.537,7.357-33.158,5.246-45.309,1.107c0.582-2.791,1.758-5.6,3.707-8.113
								C299.393,283.14,299.412,283.142,299.433,283.146z"/>
							
								<linearGradient id="SVGID_00000124884397880415078410000009385201899378282123_" gradientUnits="userSpaceOnUse" x1="330.8925" y1="279.4064" x2="477.1527" y2="279.4064" gradientTransform="matrix(-1 0 0 1 731.1406 0)">
								<stop  offset="0" style="stop-color:#FF9400"/>
								<stop  offset="1" style="stop-color:#FFF100"/>
							</linearGradient>
							<path style="fill:url(#SVGID_00000124884397880415078410000009385201899378282123_);" d="M342.456,277.02
								c3.262,0.829,6.352,1.419,9.295,1.817c-16.302,5.873-34.886,7.279-52.318,4.309c-0.021-0.004-0.04-0.006-0.06-0.008
								C305.188,275.633,317.91,270.775,342.456,277.02z"/>
							
								<linearGradient id="SVGID_00000020378613396868112990000014289094460498687361_" gradientUnits="userSpaceOnUse" x1="327.3711" y1="279.4064" x2="474.7423" y2="279.4064" gradientTransform="matrix(-1 0 0 1 731.1406 0)">
								<stop  offset="0" style="stop-color:#FFC904"/>
								<stop  offset="1" style="stop-color:#FF742C"/>
							</linearGradient>
							<path style="fill:url(#SVGID_00000020378613396868112990000014289094460498687361_);" d="M342.456,277.02
								c3.262,0.829,6.352,1.419,9.295,1.817c-16.302,5.873-34.886,7.279-52.318,4.309c-0.021-0.004-0.04-0.006-0.06-0.008
								C305.188,275.633,317.91,270.775,342.456,277.02z"/>
							<path style="opacity:0.4;fill:#FF9400;" d="M342.456,277.02c3.262,0.829,6.352,1.419,9.295,1.817
								c-16.302,5.873-34.886,7.279-52.318,4.309c-0.021-0.004-0.04-0.006-0.06-0.008
								C305.188,275.633,317.91,270.775,342.456,277.02z"/>
							
								<linearGradient id="SVGID_00000018212698418243854840000013160431806748716934_" gradientUnits="userSpaceOnUse" x1="323.4673" y1="279.4064" x2="435.9337" y2="279.4064" gradientTransform="matrix(-1 0 0 1 731.1406 0)">
								<stop  offset="0" style="stop-color:#FFC904"/>
								<stop  offset="1" style="stop-color:#FF742C"/>
							</linearGradient>
							<path style="fill:url(#SVGID_00000018212698418243854840000013160431806748716934_);" d="M342.456,277.02
								c3.262,0.829,6.352,1.419,9.295,1.817c-16.302,5.873-34.886,7.279-52.318,4.309c-0.021-0.004-0.04-0.006-0.06-0.008
								C305.188,275.633,317.91,270.775,342.456,277.02z"/>
						</g>
					</g>
				</g>
				<g>
					
						<linearGradient id="SVGID_00000174585330709124159770000017542545154097239729_" gradientUnits="userSpaceOnUse" x1="68.0347" y1="359.7737" x2="371.6732" y2="56.1352">
						<stop  offset="0" style="stop-color:#00D4FE"/>
						<stop  offset="1" style="stop-color:#574CE3"/>
					</linearGradient>
					<path style="fill:url(#SVGID_00000174585330709124159770000017542545154097239729_);" d="M229.246,149.522
						c-10.046,11.962-18.438,27.454-19.626,46.47c-1.613,25.27,7.655,41.261,17.627,53.609c-0.319-1.195-0.668-2.408-1.069-3.654
						C215.402,212.463,218.603,174.043,229.246,149.522z"/>
					
						<linearGradient id="SVGID_00000149343209978722839200000017170582279946843801_" gradientUnits="userSpaceOnUse" x1="157.1599" y1="196.4517" x2="275.0087" y2="196.4517">
						<stop  offset="0" style="stop-color:#574CE3"/>
						<stop  offset="1" style="stop-color:#00D4FE"/>
					</linearGradient>
					<path style="fill:url(#SVGID_00000149343209978722839200000017170582279946843801_);" d="M237.638,178.219
						c3.771-17.736,10.542-33.475,19.45-44.583c-1.873-1.652-3.707-3.182-5.46-4.57l-0.003-0.011
						c-0.018,0.011-0.004,0.011-0.018,0.011c-6.297,4.507-13.624,10.57-20.389,18.17c-12.436,24.333-15.613,60.595-3.71,97.199
						c0.893,2.746,1.574,5.402,2.068,7.979c3.495,4.121,6.972,7.855,10.015,11.434c-0.136-7.749-1.744-16.508-5.325-26.427
						C225.539,213.248,229.128,190.475,237.638,178.219z"/>
					
						<linearGradient id="SVGID_00000132051763822156084930000017999982310146969512_" gradientUnits="userSpaceOnUse" x1="319.3232" y1="330.2306" x2="229.1866" y2="114.1241">
						<stop  offset="0" style="stop-color:#00D4FE"/>
						<stop  offset="1" style="stop-color:#574CE3"/>
					</linearGradient>
					<path style="fill:url(#SVGID_00000132051763822156084930000017999982310146969512_);" d="M262.959,139.152
						c-4.401,7.621-6.906,18.589-7.428,30.034c1.384,0.31,2.779,0.83,4.173,1.593c8.807,4.825,11.014,27.59,10.836,37.304
						c-0.293,16.134-3.693,35.733-11.464,54.069c13.123-13.557,31.724-29.886,31.229-64.219
						C289.935,172.462,276.413,152.632,262.959,139.152z"/>
					
						<linearGradient id="SVGID_00000034809970829949584810000014627753092960207795_" gradientUnits="userSpaceOnUse" x1="157.157" y1="155.9275" x2="275.0094" y2="155.9275">
						<stop  offset="0" style="stop-color:#574CE3"/>
						<stop  offset="1" style="stop-color:#00D4FE"/>
					</linearGradient>
					<path style="fill:url(#SVGID_00000034809970829949584810000014627753092960207795_);" d="M255.531,169.186
						c0.521-11.445,3.026-22.413,7.428-30.034c-1.973-1.977-3.942-3.814-5.871-5.516c-8.908,11.108-15.679,26.846-19.45,44.583
						C242.468,171.263,248.883,167.701,255.531,169.186z"/>
					
						<linearGradient id="SVGID_00000117678466356750180730000004201965548219804863_" gradientUnits="userSpaceOnUse" x1="321.4764" y1="329.3379" x2="231.3377" y2="113.2263">
						<stop  offset="0" style="stop-color:#574CE3"/>
						<stop  offset="1" style="stop-color:#00D4FE"/>
					</linearGradient>
					<path style="fill:url(#SVGID_00000117678466356750180730000004201965548219804863_);" d="M255.531,169.186
						c0.521-11.445,3.026-22.413,7.428-30.034c-1.973-1.977-3.942-3.814-5.871-5.516c-8.908,11.108-15.679,26.846-19.45,44.583
						C242.468,171.263,248.883,167.701,255.531,169.186z"/>
					
						<linearGradient id="SVGID_00000024715776330019250260000005838797026695184520_" gradientUnits="userSpaceOnUse" x1="157.1564" y1="227.5225" x2="275.0105" y2="227.5225">
						<stop  offset="0" style="stop-color:#574CE3"/>
						<stop  offset="1" style="stop-color:#00D4FE"/>
					</linearGradient>
					<path style="fill:url(#SVGID_00000024715776330019250260000005838797026695184520_);" d="M237.638,178.219
						c-8.51,12.256-12.099,35.029-3.371,59.202c3.581,9.919,5.189,18.678,5.325,26.427c3.735,4.394,6.813,8.56,8.417,12.936
						l0.008,0.037c0,0,0,0,0.017,0.006l-0.011-0.054c0.369-0.873,0.816-1.732,1.3-2.585
						C233.555,245.307,231.134,208.805,237.638,178.219z"/>
					
						<linearGradient id="SVGID_00000044879975197209757500000008016215949174527933_" gradientUnits="userSpaceOnUse" x1="271.6723" y1="281.0743" x2="218.9712" y2="185.3555">
						<stop  offset="0" style="stop-color:#574CE3"/>
						<stop  offset="1" style="stop-color:#00D4FE"/>
					</linearGradient>
					<path style="fill:url(#SVGID_00000044879975197209757500000008016215949174527933_);" d="M237.638,178.219
						c-8.51,12.256-12.099,35.029-3.371,59.202c3.581,9.919,5.189,18.678,5.325,26.427c3.735,4.394,6.813,8.56,8.417,12.936
						l0.008,0.037c0,0,0,0,0.017,0.006l-0.011-0.054c0.369-0.873,0.816-1.732,1.3-2.585
						C233.555,245.307,231.134,208.805,237.638,178.219z"/>
					
						<linearGradient id="SVGID_00000029009709493866701160000003695297447911613356_" gradientUnits="userSpaceOnUse" x1="306.8632" y1="335.4272" x2="216.7276" y2="119.3229">
						<stop  offset="0" style="stop-color:#574CE3"/>
						<stop  offset="1" style="stop-color:#00D4FE"/>
					</linearGradient>
					<path style="fill:url(#SVGID_00000029009709493866701160000003695297447911613356_);" d="M259.704,170.779
						c-1.394-0.764-2.789-1.284-4.173-1.593c-0.418,9.107,0.42,18.518,2.574,26.787c5.473,21.033,5.129,48.362-3.895,71.457
						c1.488-1.732,3.125-3.481,4.865-5.277c7.77-18.336,11.171-37.936,11.464-54.069
						C270.718,198.369,268.511,175.604,259.704,170.779z"/>
					
						<linearGradient id="SVGID_00000156546063006394117700000001864736252961001349_" gradientUnits="userSpaceOnUse" x1="287.2894" y1="272.4754" x2="234.5883" y2="176.7565">
						<stop  offset="0" style="stop-color:#574CE3"/>
						<stop  offset="1" style="stop-color:#00D4FE"/>
					</linearGradient>
					<path style="fill:url(#SVGID_00000156546063006394117700000001864736252961001349_);" d="M259.704,170.779
						c-1.394-0.764-2.789-1.284-4.173-1.593c-0.418,9.107,0.42,18.518,2.574,26.787c5.473,21.033,5.129,48.362-3.895,71.457
						c1.488-1.732,3.125-3.481,4.865-5.277c7.77-18.336,11.171-37.936,11.464-54.069
						C270.718,198.369,268.511,175.604,259.704,170.779z"/>
					
						<linearGradient id="SVGID_00000135651414806347839630000010969837464373369235_" gradientUnits="userSpaceOnUse" x1="157.1592" y1="221.52" x2="275.0089" y2="221.52">
						<stop  offset="0" style="stop-color:#574CE3"/>
						<stop  offset="1" style="stop-color:#00D4FE"/>
					</linearGradient>
					<path style="fill:url(#SVGID_00000135651414806347839630000010969837464373369235_);" d="M258.105,195.973
						c-2.154-8.27-2.992-17.68-2.574-26.787c-6.648-1.485-13.064,2.077-17.894,9.033c-6.504,30.586-4.083,67.088,11.685,95.969
						c1.291-2.279,2.957-4.509,4.889-6.758C263.234,244.335,263.578,217.006,258.105,195.973z"/>
					
						<linearGradient id="SVGID_00000152262701414866157870000009532805223956854719_" gradientUnits="userSpaceOnUse" x1="300.6302" y1="338.0282" x2="210.4941" y2="121.9228">
						<stop  offset="0" style="stop-color:#574CE3"/>
						<stop  offset="1" style="stop-color:#00D4FE"/>
					</linearGradient>
					<path style="fill:url(#SVGID_00000152262701414866157870000009532805223956854719_);" d="M258.105,195.973
						c-2.154-8.27-2.992-17.68-2.574-26.787c-6.648-1.485-13.064,2.077-17.894,9.033c-6.504,30.586-4.083,67.088,11.685,95.969
						c1.291-2.279,2.957-4.509,4.889-6.758C263.234,244.335,263.578,217.006,258.105,195.973z"/>
					
						<linearGradient id="SVGID_00000117636280223804187190000010393487194435388304_" gradientUnits="userSpaceOnUse" x1="281.9958" y1="275.3915" x2="229.2938" y2="179.6709">
						<stop  offset="0" style="stop-color:#574CE3"/>
						<stop  offset="1" style="stop-color:#00D4FE"/>
					</linearGradient>
					<path style="fill:url(#SVGID_00000117636280223804187190000010393487194435388304_);" d="M258.105,195.973
						c-2.154-8.27-2.992-17.68-2.574-26.787c-6.648-1.485-13.064,2.077-17.894,9.033c-6.504,30.586-4.083,67.088,11.685,95.969
						c1.291-2.279,2.957-4.509,4.889-6.758C263.234,244.335,263.578,217.006,258.105,195.973z"/>
					
						<linearGradient id="SVGID_00000016069960250392177680000000140321667640662931_" gradientUnits="userSpaceOnUse" x1="157.1579" y1="199.8255" x2="275.0094" y2="199.8255">
						<stop  offset="0" style="stop-color:#574CE3"/>
						<stop  offset="1" style="stop-color:#00D4FE"/>
					</linearGradient>
					<path style="fill:url(#SVGID_00000016069960250392177680000000140321667640662931_);" d="M231.219,147.237
						c-0.664,0.747-1.321,1.509-1.973,2.285c-10.643,24.521-13.844,62.941-3.068,96.425c0.401,1.246,0.75,2.459,1.069,3.654
						c0.774,0.958,1.552,1.895,2.33,2.813c-0.494-2.576-1.176-5.232-2.068-7.979C215.605,207.832,218.783,171.57,231.219,147.237z"
						/>
					
						<linearGradient id="SVGID_00000105399659752790063660000000124793474084499369_" gradientUnits="userSpaceOnUse" x1="206.735" y1="199.8255" x2="247.1664" y2="199.8255">
						<stop  offset="0" style="stop-color:#FFE215"/>
						<stop  offset="1" style="stop-color:#FFEC68"/>
					</linearGradient>
					<path style="opacity:0.4;fill:url(#SVGID_00000105399659752790063660000000124793474084499369_);" d="M231.219,147.237
						c-0.664,0.747-1.321,1.509-1.973,2.285c-10.643,24.521-13.844,62.941-3.068,96.425c0.401,1.246,0.75,2.459,1.069,3.654
						c0.774,0.958,1.552,1.895,2.33,2.813c-0.494-2.576-1.176-5.232-2.068-7.979C215.605,207.832,218.783,171.57,231.219,147.237z"
						/>
				</g>
			</g>
		</g>
	</g>
</g>
</svg>
